<?xml version="1.0" encoding="UTF-8"?>
<!DOCTYPE svg PUBLIC "-//W3C//DTD SVG 1.1//EN" "http://www.w3.org/Graphics/SVG/1.1/DTD/svg11.dtd">
<!-- Creator: CorelDRAW X8 -->
<svg xmlns="http://www.w3.org/2000/svg" xml:space="preserve" width="22.9304mm" height="14.111mm" version="1.1" style="shape-rendering:geometricPrecision; text-rendering:geometricPrecision; image-rendering:optimizeQuality; fill-rule:evenodd; clip-rule:evenodd"
viewBox="0 0 2293 1411"
 xmlns:xlink="http://www.w3.org/1999/xlink">
 <defs>
  <style type="text/css">
   <![CDATA[
    .fil0 {fill:#CC9933;fill-rule:nonzero}
   ]]>
  </style>
 </defs>
 <g id="Layer_x0020_1">
  <metadata id="CorelCorpID_0Corel-Layer"/>
  <path class="fil0" d="M328 609l0 -85c0,-40 -32,-71 -71,-71l-16 0c-39,0 -71,31 -71,71l0 356c0,39 32,71 71,71l16 0c39,0 71,-32 71,-71l0 -85c0,-5 -5,-10 -10,-10l-33 0c-5,0 -10,5 -10,10l0 89c0,14 -11,26 -25,26l-2 0c-14,0 -25,-12 -25,-26l0 -364c0,-14 11,-26 25,-26l2 0c14,0 25,12 25,26l0 89c0,5 5,10 10,10l33 0c5,0 10,-5 10,-10zm295 -345c6,0 11,5 11,11 0,6 -5,11 -11,11l-476 0c-6,0 -11,-5 -11,-11 0,-6 5,-11 11,-11l476 0zm1044 22c-6,0 -11,-5 -11,-11 0,-6 5,-11 11,-11l476 0c6,0 11,5 11,11 0,6 -5,11 -11,11l-476 0zm-887 -75c-7,6 -13,13 -17,21 -7,13 -11,27 -11,43 0,24 9,46 25,61 16,16 38,26 62,26 66,0 77,-45 88,-91 13,-56 27,-113 116,-113 28,0 53,10 74,26 11,10 21,21 28,34 7,-13 17,-24 28,-34 20,-16 46,-26 74,-26 89,0 102,57 116,113 11,46 22,91 88,91 24,0 46,-10 62,-26 15,-15 25,-37 25,-61 0,-16 -4,-30 -11,-43 -4,-8 -10,-15 -17,-21 -4,7 -10,13 -17,18 -12,9 -26,14 -42,14 -16,0 -30,-5 -42,-14l0 0c-12,-9 -21,-21 -26,-36l0 0c-1,-3 -2,-7 -2,-10 -1,-3 -1,-7 -1,-10 0,-20 8,-37 21,-50 13,-13 30,-21 50,-21 19,0 37,8 50,21 12,13 20,30 20,50 0,2 0,5 0,8 13,10 24,23 32,37 9,17 14,36 14,57 0,32 -13,61 -34,82 -21,21 -50,34 -82,34 -89,0 -103,-57 -116,-113 -11,-45 -22,-91 -88,-91 -21,0 -40,8 -55,20 -12,9 -21,22 -27,36l3 1c6,2 12,5 17,8 9,7 17,15 22,26 6,9 8,21 8,32 0,20 -7,37 -20,50 -13,13 -31,21 -50,21 -20,0 -37,-8 -50,-21 -13,-13 -21,-30 -21,-50 0,-12 3,-23 9,-33 5,-10 13,-19 22,-25 6,-4 12,-7 18,-9l1 0c-5,-14 -14,-27 -26,-36 -15,-12 -34,-20 -55,-20 -66,0 -77,46 -88,91 -13,56 -27,113 -116,113 -32,0 -61,-13 -82,-34 -21,-21 -34,-50 -34,-82 0,-21 5,-40 14,-57 8,-14 19,-27 32,-37 0,-3 0,-6 0,-8 0,-20 7,-37 20,-50 13,-13 31,-21 50,-21 19,0 37,8 50,21 13,13 21,30 21,50 0,2 -1,5 -1,7l0 1c0,2 -1,5 -1,7 -4,16 -13,30 -25,40 -12,9 -27,15 -44,15 -16,0 -31,-5 -42,-14 -7,-5 -13,-11 -17,-18zm366 58l-3 0c-4,0 -7,1 -11,2 -4,1 -7,3 -10,5 -6,4 -11,9 -14,15 -3,5 -5,12 -5,19 0,12 5,22 13,29 7,8 17,13 29,13 11,0 22,-5 29,-12 8,-8 12,-18 12,-30 0,-7 -1,-13 -4,-19 -3,-6 -8,-11 -13,-15 -3,-2 -7,-4 -10,-5l-1 0c-4,-1 -8,-2 -12,-2zm-278 -126c-7,-7 -18,-12 -29,-12 -11,0 -22,5 -29,12 -8,8 -12,18 -12,30 0,2 0,4 0,5 0,2 1,4 1,6 3,9 8,16 15,22 7,5 16,8 25,8 10,0 19,-3 26,-9 7,-6 12,-14 14,-23 1,-4 1,-6 1,-9 0,-12 -4,-22 -12,-30zm612 0c-7,-7 -18,-12 -29,-12 -12,0 -22,5 -30,12 -7,8 -12,18 -12,30 0,2 0,4 1,6 0,2 0,4 1,5l0 1c3,8 8,16 15,21l0 0c7,5 15,8 25,8 9,0 18,-3 25,-8 7,-6 12,-13 15,-22 0,-2 0,-4 1,-6 0,-1 0,-3 0,-5 0,-12 -5,-22 -12,-30zm327 1040l1 16 -6 -5 -2 6c-1,5 -3,8 -4,10 0,2 0,3 2,13l2 14 -13 -5c-21,-9 -21,-26 -22,-45 0,-10 0,-22 -4,-32 -9,-19 -24,-29 -42,-40l-4 -3c-18,-12 -44,-19 -71,-20 -24,-2 -48,1 -68,10 3,10 6,19 6,28 1,11 -1,23 -5,38 -6,22 -20,33 -33,36 -7,1 -15,0 -21,-3 -7,-3 -12,-7 -16,-14 -9,-13 -10,-33 3,-56 10,-17 16,-22 25,-30 3,-2 6,-4 10,-8 -9,-15 -27,-29 -50,-39 -23,-9 -50,-15 -76,-15l1 2c4,14 7,26 4,47 -3,12 -7,21 -12,29 -2,3 -3,6 -5,10l2 3c12,26 20,43 -2,76 -6,10 -18,18 -32,24 -13,6 -28,9 -43,8 -43,-3 -74,-24 -99,-41 -13,-9 -24,-17 -35,-20 -10,9 -19,25 -22,42 -2,8 -2,17 -1,26 1,8 3,15 7,22 6,8 15,14 28,17 14,3 18,-2 23,-6 5,-5 9,-10 20,-10l9 0 -1 9c-2,11 -9,20 -19,25 -9,6 -21,8 -34,7l-1 -1c-10,-1 -19,-5 -27,-11 -9,-6 -16,-14 -21,-22 -23,-44 -2,-77 14,-101l6 -11c-5,-3 -13,-9 -21,-13 -6,-4 -11,-6 -12,-6 -1,0 -7,3 -13,7 -7,4 -15,9 -20,13l3 5c18,26 41,61 16,106 -15,27 -41,34 -62,33 -6,-1 -12,-2 -17,-5 -6,-2 -11,-5 -14,-8 -7,-7 -10,-16 -5,-25l4 -7 7 4c4,3 7,6 11,9 6,6 11,12 30,7 8,-2 13,-5 18,-9 4,-4 8,-9 11,-17 5,-14 4,-29 0,-42 -5,-16 -14,-30 -22,-38 -5,2 -10,6 -16,9 -3,3 -7,6 -11,8l-13 8c-28,17 -56,35 -93,37 -17,0 -32,-3 -45,-9 -15,-6 -26,-15 -32,-26 -20,-33 -12,-49 -2,-71l3 -7c-22,-26 -16,-56 -11,-84l0 -2c-28,1 -59,7 -83,18 -20,8 -36,20 -43,35 4,4 9,8 13,12l4 3c7,6 13,13 17,22 5,10 9,21 9,32 1,11 -2,22 -8,30 -3,3 -7,6 -11,8 -2,1 -4,2 -6,3 -10,3 -20,1 -29,-5 -8,-6 -14,-14 -18,-21 -1,-3 -3,-6 -4,-9 -8,-25 -5,-36 -2,-48 1,-5 2,-10 2,-17 -1,-4 -11,-8 -23,-10 -15,-2 -32,-2 -43,-1l-5 0c-27,4 -44,13 -64,24l0 0c-9,5 -17,11 -24,18 -7,7 -12,16 -16,27 -3,7 -3,17 -3,25 -1,21 -1,39 -24,46l-15 4 5 -14c4,-9 2,-14 1,-19 -2,-5 -3,-9 -2,-14l-9 0 1 -9c1,-8 5,-15 9,-21l2 -3 -12 1 19 -18c-12,5 -23,11 -35,14 -43,15 -91,24 -138,26 -41,1 -82,-5 -118,-19 -6,-3 -14,-6 -21,-10 -5,-3 -11,-6 -15,-9 -14,-11 -28,-24 -39,-39 -11,-16 -18,-34 -20,-56 -1,-8 0,-16 3,-23 3,-8 8,-16 14,-22 7,-6 15,-10 24,-10 6,-1 12,0 18,2 11,4 19,14 21,25 2,5 2,11 1,16 -1,5 -3,10 -7,14 -6,7 -15,11 -27,10l-3 0 -2 -2c-3,-3 -7,-8 -9,-13 -2,-4 -3,-7 -3,-11 0,-5 2,-9 7,-12 2,-2 4,-3 7,-4l6 -1 3 5c2,5 2,8 1,12 0,1 0,2 0,3l1 0c1,-1 1,-1 2,-2 0,-1 0,-3 0,-5 0,-4 -2,-9 -4,-13 -7,-1 -13,0 -18,3 -4,1 -7,4 -9,7 -2,3 -3,7 -4,12 -1,8 1,19 6,29 21,43 54,67 94,79 40,13 88,13 135,7 55,-6 97,-25 138,-44 37,-16 72,-32 115,-39 39,-7 55,-1 81,9l10 3c1,-2 3,-3 4,-5 1,-2 3,-4 5,-8 10,-11 23,-18 35,-24 6,-4 12,-7 17,-10 10,-8 16,-19 17,-30 0,-4 0,-8 -1,-11 0,-1 -1,-2 -2,-3l0 5c0,10 -4,17 -8,22 -3,3 -7,4 -10,5 -4,0 -7,0 -11,-2 -5,-2 -10,-7 -12,-13 -5,-15 -1,-26 7,-33 4,-3 8,-6 12,-7 5,-1 9,-2 14,-1 13,1 26,8 31,23 6,16 3,25 -1,33l1 0c10,-2 20,-4 32,-5 10,-1 16,-1 20,-1 4,0 6,0 6,0 2,0 4,-3 8,-8l3 -3c9,-11 24,-18 42,-22 18,-3 38,-3 56,1 26,5 46,12 65,20 19,8 37,17 58,30 7,3 12,8 18,12 5,4 9,8 15,10 1,-1 5,-4 12,-9 35,-22 113,-73 189,-65 16,1 29,7 39,14 9,6 15,13 22,20 35,2 44,5 54,7l10 2 -1 -2c-4,-10 -6,-20 -4,-29 2,-10 7,-18 16,-24l4 -2c13,-6 24,-4 32,1 4,2 8,6 10,10 3,4 5,9 5,14 1,9 -2,19 -11,26l-2 2 -3 0c-8,0 -15,-1 -20,-6 -4,-4 -6,-11 -7,-20l0 -4c-2,3 -3,8 -3,13 1,6 3,13 7,18l1 2c6,6 18,14 29,21l9 6c6,4 13,10 20,17 4,4 7,9 10,14 4,-1 8,-3 12,-5 9,-3 18,-7 33,-9 25,-4 51,0 76,7 25,7 48,17 68,27 26,14 59,27 93,37 29,8 59,14 88,16 38,3 73,-1 104,-10 31,-9 57,-23 77,-42 22,-21 30,-44 29,-62 0,-6 -2,-13 -4,-17 -1,-2 -2,-4 -4,-6l-2 35 -5 2c-15,5 -27,2 -34,-5 -6,-5 -9,-14 -9,-22 0,-9 3,-17 8,-24 8,-10 22,-16 40,-11 16,5 26,16 31,30 4,12 3,27 -1,42 -4,14 -13,30 -25,44 -30,38 -87,70 -170,70 -75,0 -125,-17 -181,-37 1,3 1,5 0,7 10,9 17,17 18,34zm-20 -15c-3,-3 -6,-6 -9,-9 1,5 2,10 2,15l1 -1c1,-1 2,-3 5,-4l1 -1zm-15 -25l0 0 -1 -1 1 1zm-9 -13l-4 -8 -11 -6c6,5 11,9 15,14zm363 -113l6 -3c-5,-2 -10,-2 -16,1 -2,1 -4,3 -5,5 -1,3 -2,5 -1,8 0,2 0,4 2,6 0,1 1,1 2,2 1,-1 1,-1 0,-1 -1,-6 -3,-12 12,-18zm-621 -31c-1,-1 -3,-1 -4,0l3 2 3 2c2,3 4,4 5,6l1 1c0,-2 0,-3 0,-5 -1,-1 -2,-3 -3,-4 -1,-1 -3,-2 -5,-2zm-109 38l-1 -1 -1 1 2 0zm-607 -36l3 -2c-2,0 -4,1 -6,1l0 1c-2,1 -4,3 -5,5 -1,1 -1,3 -1,5l1 0 1 0c1,-1 2,-2 3,-4 1,-3 2,-4 4,-5l0 -1zm-8 10l0 0 0 0zm-208 104l-2 1 -1 1 3 -2zm-42 39l-3 3 1 0 2 -3zm-7 18c-3,2 -7,5 -10,9 -1,2 -2,4 -3,6l10 1c1,-5 1,-11 3,-16zm-3 23l-3 4c-3,5 -2,9 -1,13l2 6c1,-5 2,-12 2,-19l0 -4zm1260 2l0 3c0,6 0,13 1,18l1 -1c0,-2 1,-4 3,-8l0 -2c0,-1 1,-2 0,-3l-5 -7zm-553 -33c-4,3 -8,6 -11,9 8,5 15,10 23,15 24,16 49,34 85,39 19,2 35,-1 46,-7 10,-5 16,-13 21,-21 4,-8 6,-17 5,-26 -1,-6 -3,-12 -6,-17 -3,1 -6,3 -9,5 -7,4 -16,9 -32,12 -29,4 -60,-4 -83,-11 -11,-3 -20,-6 -24,-5 -4,0 -9,3 -15,7zm-185 29c11,-7 21,-15 33,-20 -1,-1 -3,-2 -5,-4l-4 -2c-19,-12 -21,-11 -35,-7 -8,3 -18,6 -31,9 -54,13 -76,1 -93,-9l-6 -4c-4,5 -6,11 -7,17 -1,8 0,17 5,25 4,8 10,15 19,21 12,6 26,10 45,8 35,-4 58,-20 79,-34zm517 -52c-1,-5 -2,-10 -4,-14 -4,2 -8,5 -11,9 -6,5 -11,12 -14,17 -9,15 -9,27 -5,34 2,3 4,5 6,6 2,1 5,1 7,1 6,-2 13,-8 17,-21 3,-9 5,-21 4,-32zm-800 14c-6,-12 -16,-22 -25,-27 -3,15 -3,30 0,41 2,8 5,15 9,19 3,4 7,6 11,6 2,0 4,0 6,-1 4,-2 5,-5 6,-8 1,-4 1,-9 -1,-13 -1,-6 -3,-11 -6,-17zm527 -17c-4,1 -8,2 -12,3 15,5 31,8 48,9 9,0 23,1 34,-2 6,-1 12,-3 16,-7 -7,-2 -14,-4 -21,-5 -11,-2 -22,-3 -34,-2 -7,0 -19,1 -31,4zm-108 -4l-10 6 28 20 21 -17 -7 -4c-5,-3 -9,-5 -12,-7 -5,-3 -7,-5 -12,-3 -1,1 -4,3 -8,5zm-91 1l-14 8 23 16 7 -4c7,-4 15,-9 21,-14 -10,-6 -21,-13 -25,-12l-12 6zm-113 -1c-24,-2 -38,2 -56,7l3 2c4,2 11,4 19,5 10,2 22,2 29,2 10,-1 21,-2 31,-4 5,-2 10,-3 15,-4l-4 -2c-14,-3 -29,-6 -37,-6zm159 -30c-3,3 -7,6 -11,9l9 6 2 2c4,2 9,5 11,5 2,0 6,-2 10,-4 5,-3 10,-6 14,-9 -2,-2 -6,-4 -8,-5 -4,-3 -7,-5 -9,-7l-5 -4c-4,2 -8,4 -13,7zm93 3l-14 7 1 1 10 5c20,10 21,10 32,5 7,-2 16,-6 31,-10 24,-6 42,-7 60,-5 14,2 28,7 42,14l3 -7c9,-18 14,-31 3,-64 -14,0 -28,2 -43,5 -21,4 -42,11 -58,16 -29,12 -51,24 -67,33zm-30 11l-2 -4 14 -6 2 4 1 5 -15 1zm-305 -18c2,9 5,18 10,24 6,-2 10,-4 15,-6 20,-7 39,-15 89,-3 16,5 25,8 32,11 10,4 10,4 31,-6l10 -6 1 0c-16,-11 -40,-22 -66,-32 -33,-13 -68,-23 -93,-27l-9 -2c-10,-1 -15,-2 -17,6 -4,13 -5,28 -3,41zm54 -82c-13,2 -25,6 -32,13 29,4 59,11 89,21 31,11 60,24 83,40 7,4 13,7 19,6 5,-1 11,-5 18,-12l2 -2c-5,-6 -17,-14 -30,-21 -26,-16 -59,-30 -70,-34 -20,-8 -53,-14 -79,-11zm225 62l-5 4c22,17 24,17 39,8 10,-6 23,-13 36,-19l18 -8c11,-6 27,-12 44,-18 17,-5 35,-11 49,-13 9,-2 15,-3 19,-3 3,0 5,0 6,-1 -12,-8 -22,-14 -48,-13 -41,2 -60,10 -94,25l-51 29c-5,2 -9,5 -13,9zm116 -632l875 76 -875 0 0 -76zm827 130l-36 0c-4,0 -8,2 -9,5l-56 119 0 -117c0,-4 -5,-7 -10,-7l-28 0c-5,0 -10,3 -10,7l0 372c0,4 5,7 10,7l28 0c5,0 10,-3 10,-7l0 -153 57 155c1,3 5,5 10,5l34 0c3,0 5,-2 5,-5l-72 -193c-4,-11 -4,-23 2,-34l69 -149c2,-3 -1,-5 -4,-5l0 0zm-273 7l0 327c0,11 -12,20 -26,20l-1 0c-14,0 -26,-9 -26,-20l0 -327c0,-4 -4,-7 -10,-7l-32 0c-6,0 -10,3 -10,7l0 324c0,31 32,55 71,55l15 0c40,0 72,-24 72,-55l0 -324c0,-4 -5,-7 -10,-7l-33 0c-6,0 -10,3 -10,7l0 0zm-166 -7l-35 0c-4,0 -8,2 -10,5l-56 119 0 -117c0,-4 -4,-7 -10,-7l-28 0c-5,0 -10,3 -10,7l0 372c0,4 5,7 10,7l28 0c6,0 10,-3 10,-7l0 -153 57 155c2,3 5,5 10,5l34 0c3,0 6,-2 5,-5l-72 -193c-4,-11 -3,-23 2,-34l70 -149c1,-3 -2,-5 -5,-5l0 0zm-273 7l0 327c0,11 -11,20 -26,20l-1 0c-14,0 -25,-9 -25,-20l0 -327c0,-4 -5,-7 -10,-7l-33 0c-6,0 -10,3 -10,7l0 324c0,31 32,55 71,55l15 0c40,0 72,-24 72,-55l0 -324c0,-4 -5,-7 -10,-7l-33 0c-5,0 -10,3 -10,7l0 0zm-177 79l0 -127c0,-39 -31,-71 -71,-71l-76 0c-6,0 -10,4 -10,10l0 478c0,6 4,10 10,10l32 0c6,0 10,-4 10,-10l0 -208c0,-6 5,-10 10,-10l17 0c14,0 26,11 26,25l0 193c0,6 4,10 10,10l32 0c6,0 10,-4 10,-10l0 -189c0,-19 -8,-37 -21,-50 13,-13 21,-31 21,-51l0 0zm-95 30c-5,0 -10,-4 -10,-10l0 -167c0,-5 5,-10 10,-10l17 0c14,0 26,12 26,26l0 135c0,15 -12,26 -26,26l-17 0zm-186 -218l0 421c0,14 -12,26 -26,26l-2 0c-14,0 -25,-12 -25,-26l0 -421c0,-6 -5,-10 -10,-10l-33 0c-5,0 -10,4 -10,10l0 417c0,39 32,71 72,71l15 0c39,0 71,-32 71,-71l0 -417c0,-6 -4,-10 -10,-10l-33 0c-5,0 -9,4 -9,10l0 0zm-166 -10l-36 0c-4,0 -8,2 -9,6l-56 155 0 -151c0,-6 -5,-10 -10,-10l-28 0c-6,0 -10,4 -10,10l0 478c0,6 4,10 10,10l28 0c5,0 10,-4 10,-10l0 -197 57 200c1,4 5,7 9,7l35 0c3,0 5,-3 4,-6l-71 -250c-4,-14 -4,-29 1,-44l70 -192c1,-3 -1,-6 -4,-6l0 0zm-273 10l0 421c0,14 -12,26 -26,26l-1 0c-14,0 -26,-12 -26,-26l0 -421c0,-6 -4,-10 -10,-10l-33 0c-5,0 -10,4 -10,10l0 417c0,39 32,71 72,71l15 0c39,0 71,-32 71,-71l0 -417c0,-6 -4,-10 -10,-10l-32 0c-6,0 -10,4 -10,10l0 0z"/>
 </g>
</svg>
